<svg xmlns="http://www.w3.org/2000/svg" xmlns:xlink="http://www.w3.org/1999/xlink" width="445" zoomAndPan="magnify" viewBox="0 0 333.75 374.999991" height="500" preserveAspectRatio="xMidYMid meet" version="1.0"><defs><clipPath id="c94587b9ee"><path d="M 25 104.355469 L 231.828125 104.355469 L 231.828125 374.859375 L 25 374.859375 Z M 25 104.355469 " clip-rule="nonzero"/></clipPath><clipPath id="6dc18b66ba"><path d="M 2 344.414062 L 252.8125 344.414062 L 252.8125 374.859375 L 2 374.859375 Z M 2 344.414062 " clip-rule="nonzero"/></clipPath><clipPath id="51662ea17c"><path d="M 2 0.46875 L 252.8125 0.46875 L 252.8125 188.375 L 2 188.375 Z M 2 0.46875 " clip-rule="nonzero"/></clipPath><clipPath id="eb85de564d"><path d="M 83.175781 28.109375 L 209.113281 28.109375 L 209.113281 128.183594 L 83.175781 128.183594 Z M 83.175781 28.109375 " clip-rule="nonzero"/></clipPath><clipPath id="e95e4a62c3"><path d="M 98.902344 28.109375 L 193.386719 28.109375 C 197.554688 28.109375 201.554688 29.765625 204.507812 32.71875 C 207.453125 35.667969 209.113281 39.671875 209.113281 43.851562 L 209.113281 112.441406 C 209.113281 116.613281 207.453125 120.621094 204.507812 123.574219 C 201.554688 126.523438 197.554688 128.183594 193.386719 128.183594 L 98.902344 128.183594 C 94.730469 128.183594 90.730469 126.523438 87.78125 123.574219 C 84.832031 120.621094 83.175781 116.613281 83.175781 112.441406 L 83.175781 43.851562 C 83.175781 39.671875 84.832031 35.667969 87.78125 32.71875 C 90.730469 29.765625 94.730469 28.109375 98.902344 28.109375 Z M 98.902344 28.109375 " clip-rule="nonzero"/></clipPath></defs><path fill="#99aab5" d="M 283.28125 344.734375 C 258.109375 344.734375 231.203125 331.035156 231.203125 292.574219 C 231.203125 270.964844 242.847656 256.289062 254.105469 242.097656 C 258.511719 236.550781 262.972656 230.941406 267.011719 224.71875 C 250.816406 209.917969 232.992188 198.683594 220.789062 198.683594 L 220.789062 177.816406 C 237.667969 177.816406 258.3125 189.636719 276.84375 205.671875 C 280.78125 195.289062 283.28125 182.960938 283.28125 167.386719 L 304.113281 167.386719 C 304.113281 190.011719 299.449219 207.195312 292.894531 221.101562 C 307.945312 237.1875 319.882812 254.796875 324.402344 268.402344 C 331.566406 289.953125 329.433594 312.507812 318.832031 327.261719 C 310.726562 338.527344 298.09375 344.734375 283.28125 344.734375 Z M 281.925781 239.867188 C 278.09375 245.398438 274.144531 250.382812 270.417969 255.078125 C 260.148438 268.015625 252.035156 278.25 252.035156 292.574219 C 252.035156 318.433594 269.03125 323.871094 283.28125 323.871094 C 291.445312 323.871094 297.726562 320.90625 301.933594 315.054688 C 308.601562 305.789062 309.65625 290.066406 304.65625 275.007812 C 301.246094 264.800781 292.675781 252.03125 281.925781 239.867188 Z M 281.925781 239.867188 " fill-opacity="1" fill-rule="nonzero"/><g clip-path="url(#c94587b9ee)"><path fill="#ffac33" d="M 192.164062 104.792969 L 64.554688 104.792969 C 41.542969 104.792969 24.105469 123.476562 25.597656 146.519531 L 37.785156 334.300781 C 39.28125 357.347656 56.269531 376.03125 75.746094 376.03125 L 180.964844 376.03125 C 200.4375 376.03125 217.433594 357.347656 218.933594 334.300781 L 231.132812 146.519531 C 232.605469 123.476562 215.175781 104.792969 192.164062 104.792969 Z M 192.164062 104.792969 " fill-opacity="1" fill-rule="nonzero"/></g><g clip-path="url(#6dc18b66ba)"><path fill="#aab8c2" d="M 241.621094 344.734375 L 12.472656 344.734375 C 6.722656 344.734375 2.058594 349.394531 2.058594 355.167969 L 2.058594 376.03125 L 252.035156 376.03125 L 252.035156 355.167969 C 252.035156 349.394531 247.378906 344.734375 241.621094 344.734375 Z M 241.621094 344.734375 " fill-opacity="1" fill-rule="nonzero"/></g><path fill="#ffac33" d="M 293.699219 104.792969 C 287.9375 104.792969 283.28125 100.117188 283.28125 94.359375 L 283.28125 60.601562 L 305.203125 16.667969 C 307.789062 11.515625 314.039062 9.421875 319.183594 12.007812 C 324.332031 14.582031 326.410156 20.851562 323.839844 26.007812 L 304.113281 65.523438 L 304.113281 94.359375 C 304.113281 100.117188 299.457031 104.792969 293.699219 104.792969 Z M 293.699219 104.792969 " fill-opacity="1" fill-rule="nonzero"/><path fill="#be1931" d="M 319.738281 167.386719 L 311.640625 167.386719 C 313.433594 164.304688 314.53125 160.769531 314.53125 156.953125 L 314.53125 115.222656 C 314.53125 107.523438 310.320312 100.867188 304.113281 97.25 L 304.113281 94.359375 C 304.113281 88.601562 299.457031 83.925781 293.699219 83.925781 C 287.9375 83.925781 283.28125 88.601562 283.28125 94.359375 L 283.28125 97.25 C 277.074219 100.867188 272.867188 107.515625 272.867188 115.222656 L 272.867188 156.953125 C 272.867188 160.769531 273.957031 164.304688 275.75 167.386719 L 267.660156 167.386719 C 264.78125 167.386719 262.449219 169.722656 262.449219 172.601562 C 262.449219 175.480469 264.78125 177.816406 267.660156 177.816406 L 319.738281 177.816406 C 322.609375 177.816406 324.945312 175.480469 324.945312 172.601562 C 324.945312 169.722656 322.609375 167.386719 319.738281 167.386719 Z M 319.738281 167.386719 " fill-opacity="1" fill-rule="nonzero"/><path fill="#99aab5" d="M 231.203125 146.519531 C 231.203125 152.28125 235.859375 156.953125 241.621094 156.953125 L 293.699219 156.953125 C 299.457031 156.953125 304.113281 152.28125 304.113281 146.519531 C 304.113281 140.761719 299.457031 136.089844 293.699219 136.089844 L 241.621094 136.089844 C 235.859375 136.089844 231.203125 140.761719 231.203125 146.519531 Z M 231.203125 146.519531 " fill-opacity="1" fill-rule="nonzero"/><g clip-path="url(#51662ea17c)"><path fill="#e1e8ed" d="M 252.035156 146.519531 C 252.035156 169.566406 233.378906 188.25 210.371094 188.25 L 43.722656 188.25 C 20.710938 188.25 2.058594 169.566406 2.058594 146.519531 L 2.058594 42.199219 C 2.058594 19.152344 20.710938 0.46875 43.722656 0.46875 L 210.371094 0.46875 C 233.378906 0.46875 252.035156 19.152344 252.035156 42.199219 Z M 252.035156 146.519531 " fill-opacity="1" fill-rule="nonzero"/></g><path fill="#66757f" d="M 231.203125 146.519531 C 231.203125 158.039062 221.867188 167.386719 210.371094 167.386719 L 43.722656 167.386719 C 32.222656 167.386719 22.890625 158.039062 22.890625 146.519531 L 22.890625 42.199219 C 22.890625 30.679688 32.222656 21.332031 43.722656 21.332031 L 210.371094 21.332031 C 221.867188 21.332031 231.203125 30.679688 231.203125 42.199219 Z M 231.203125 146.519531 " fill-opacity="1" fill-rule="nonzero"/><path fill="#aab8c2" d="M 106.214844 52.628906 L 199.957031 52.628906 L 199.957031 83.925781 L 106.214844 83.925781 Z M 106.214844 52.628906 " fill-opacity="1" fill-rule="nonzero"/><g clip-path="url(#eb85de564d)"><g clip-path="url(#e95e4a62c3)"><path fill="#66757f" d="M 83.175781 28.109375 L 209.113281 28.109375 L 209.113281 128.183594 L 83.175781 128.183594 Z M 83.175781 28.109375 " fill-opacity="1" fill-rule="nonzero"/></g></g><path fill="#f7931a" d="M 188.304688 281.625 C 180.234375 314.027344 147.453125 333.742188 115.082031 325.664062 C 82.722656 317.585938 63.023438 284.769531 71.097656 252.371094 C 79.164062 219.96875 111.949219 200.246094 144.308594 208.324219 C 176.679688 216.402344 196.375 249.222656 188.304688 281.625 Z M 188.304688 281.625 " fill-opacity="1" fill-rule="nonzero"/><path fill="#ffffff" d="M 156.339844 258.378906 C 157.542969 250.332031 151.421875 246.007812 143.054688 243.117188 L 145.765625 232.21875 L 139.136719 230.566406 L 136.496094 241.175781 C 134.75 240.742188 132.964844 240.332031 131.183594 239.925781 L 133.84375 229.246094 L 127.222656 227.585938 L 124.503906 238.484375 C 123.058594 238.15625 121.644531 237.832031 120.269531 237.492188 L 120.277344 237.457031 L 111.136719 235.171875 L 109.371094 242.257812 C 109.371094 242.257812 114.289062 243.386719 114.1875 243.457031 C 116.871094 244.128906 117.355469 245.910156 117.277344 247.316406 L 114.183594 259.738281 C 114.367188 259.785156 114.605469 259.851562 114.871094 259.960938 C 114.652344 259.902344 114.414062 259.84375 114.171875 259.785156 L 109.835938 277.183594 C 109.507812 278 108.675781 279.222656 106.800781 278.757812 C 106.867188 278.855469 101.976562 277.554688 101.976562 277.554688 L 98.6875 285.148438 L 107.3125 287.300781 C 108.917969 287.703125 110.492188 288.125 112.042969 288.519531 L 109.296875 299.546875 L 115.921875 301.203125 L 118.636719 290.292969 C 120.445312 290.785156 122.203125 291.242188 123.917969 291.667969 L 121.210938 302.523438 L 127.839844 304.175781 L 130.585938 293.171875 C 141.890625 295.3125 150.386719 294.449219 153.964844 284.214844 C 156.851562 275.976562 153.824219 271.21875 147.875 268.121094 C 152.207031 267.121094 155.46875 264.269531 156.339844 258.378906 Z M 141.195312 279.640625 C 139.144531 287.878906 125.285156 283.425781 120.792969 282.308594 L 124.429688 267.699219 C 128.921875 268.824219 143.335938 271.042969 141.195312 279.640625 Z M 143.246094 258.257812 C 141.375 265.757812 129.839844 261.949219 126.097656 261.015625 L 129.394531 247.765625 C 133.136719 248.699219 145.191406 250.441406 143.246094 258.257812 Z M 143.246094 258.257812 " fill-opacity="1" fill-rule="nonzero"/><path fill="#ffffff" d="M 35.835938 85.832031 L 45.597656 91.878906 L 45.597656 94.695312 L 35.867188 100.742188 L 34.089844 98.054688 L 42.207031 93.289062 L 34.089844 88.660156 Z M 35.835938 85.832031 " fill-opacity="1" fill-rule="nonzero"/><path fill="#ffffff" d="M 71.238281 83.378906 C 72.484375 83.378906 73.539062 83.546875 74.40625 83.878906 C 75.28125 84.203125 76.078125 84.667969 76.796875 85.269531 L 74.78125 87.691406 C 74.3125 87.296875 73.789062 86.984375 73.21875 86.753906 C 72.644531 86.527344 72.023438 86.410156 71.347656 86.410156 C 70.617188 86.410156 69.949219 86.621094 69.347656 87.035156 C 68.753906 87.441406 68.273438 88.09375 67.910156 88.988281 C 67.554688 89.875 67.378906 91.027344 67.378906 92.445312 C 67.378906 93.832031 67.550781 94.96875 67.894531 95.851562 C 68.246094 96.726562 68.726562 97.375 69.332031 97.789062 C 69.933594 98.195312 70.632812 98.398438 71.425781 98.398438 C 72.289062 98.398438 73.003906 98.238281 73.578125 97.914062 C 74.148438 97.59375 74.675781 97.238281 75.15625 96.851562 L 77.03125 99.226562 C 76.375 99.863281 75.570312 100.410156 74.625 100.867188 C 73.675781 101.324219 72.53125 101.554688 71.191406 101.554688 C 69.628906 101.554688 68.238281 101.210938 67.023438 100.523438 C 65.8125 99.828125 64.867188 98.800781 64.179688 97.445312 C 63.492188 96.09375 63.148438 94.425781 63.148438 92.445312 C 63.148438 90.503906 63.5 88.863281 64.210938 87.519531 C 64.929688 86.167969 65.898438 85.140625 67.113281 84.441406 C 68.339844 83.734375 69.714844 83.378906 71.238281 83.378906 Z M 71.238281 83.378906 " fill-opacity="1" fill-rule="nonzero"/><path fill="#ffffff" d="M 84.777344 87.425781 C 86.140625 87.425781 87.296875 87.71875 88.257812 88.300781 C 89.214844 88.886719 89.945312 89.703125 90.445312 90.753906 C 90.953125 91.808594 91.210938 93.046875 91.210938 94.460938 C 91.210938 95.941406 90.953125 97.210938 90.445312 98.273438 C 89.933594 99.328125 89.199219 100.140625 88.242188 100.710938 C 87.28125 101.273438 86.128906 101.554688 84.777344 101.554688 C 83.421875 101.554688 82.261719 101.277344 81.292969 100.726562 C 80.335938 100.164062 79.601562 99.359375 79.09375 98.304688 C 78.582031 97.242188 78.328125 95.972656 78.328125 94.492188 C 78.328125 93.085938 78.582031 91.847656 79.09375 90.785156 C 79.601562 89.722656 80.335938 88.902344 81.292969 88.316406 C 82.261719 87.722656 83.421875 87.425781 84.777344 87.425781 Z M 84.777344 90.332031 C 83.964844 90.332031 83.363281 90.667969 82.980469 91.332031 C 82.59375 91.988281 82.402344 93.046875 82.402344 94.492188 C 82.402344 95.953125 82.59375 97.015625 82.980469 97.679688 C 83.363281 98.335938 83.964844 98.664062 84.777344 98.664062 C 85.578125 98.664062 86.171875 98.335938 86.554688 97.679688 C 86.949219 97.015625 87.148438 95.941406 87.148438 94.460938 C 87.148438 93.035156 86.949219 91.988281 86.554688 91.332031 C 86.171875 90.667969 85.578125 90.332031 84.777344 90.332031 Z M 84.777344 90.332031 " fill-opacity="1" fill-rule="nonzero"/><path fill="#ffffff" d="M 102.109375 87.863281 L 102.109375 98.429688 L 105.480469 98.429688 L 105.480469 101.132812 L 94.410156 101.132812 L 94.410156 98.429688 L 98.160156 98.429688 L 98.160156 90.566406 L 94.535156 90.566406 L 94.535156 87.863281 Z M 99.71875 80.910156 C 100.40625 80.910156 100.960938 81.125 101.390625 81.550781 C 101.828125 81.980469 102.046875 82.511719 102.046875 83.144531 C 102.046875 83.769531 101.828125 84.300781 101.390625 84.738281 C 100.960938 85.167969 100.40625 85.378906 99.71875 85.378906 C 99.03125 85.378906 98.472656 85.167969 98.035156 84.738281 C 97.597656 84.300781 97.378906 83.769531 97.378906 83.144531 C 97.378906 82.511719 97.597656 81.980469 98.035156 81.550781 C 98.472656 81.125 99.03125 80.910156 99.71875 80.910156 Z M 99.71875 80.910156 " fill-opacity="1" fill-rule="nonzero"/><path fill="#ffffff" d="M 108.980469 101.132812 L 108.980469 87.863281 L 112.429688 87.863281 L 112.695312 89.394531 C 113.289062 88.730469 113.914062 88.234375 114.570312 87.910156 C 115.226562 87.589844 115.976562 87.425781 116.816406 87.425781 C 117.949219 87.425781 118.839844 87.777344 119.488281 88.472656 C 120.132812 89.160156 120.457031 90.128906 120.457031 91.378906 L 120.457031 101.132812 L 116.523438 101.132812 L 116.523438 92.523438 C 116.523438 91.980469 116.480469 91.550781 116.398438 91.238281 C 116.324219 90.917969 116.195312 90.6875 116.007812 90.550781 C 115.820312 90.40625 115.5625 90.332031 115.242188 90.332031 C 114.96875 90.332031 114.703125 90.394531 114.445312 90.519531 C 114.183594 90.636719 113.929688 90.808594 113.679688 91.035156 C 113.429688 91.265625 113.179688 91.535156 112.929688 91.847656 L 112.929688 101.132812 Z M 108.980469 101.132812 " fill-opacity="1" fill-rule="nonzero"/><path fill="#ffffff" d="M 151.359375 96.070312 C 151.359375 97.144531 151.078125 98.097656 150.515625 98.929688 C 149.953125 99.753906 149.144531 100.398438 148.097656 100.867188 C 147.054688 101.324219 145.792969 101.554688 144.316406 101.554688 C 142.695312 101.554688 141.328125 101.3125 140.226562 100.835938 C 139.121094 100.359375 138.203125 99.765625 137.480469 99.054688 L 139.554688 96.757812 C 140.1875 97.320312 140.890625 97.753906 141.664062 98.054688 C 142.445312 98.359375 143.292969 98.507812 144.222656 98.507812 C 144.792969 98.507812 145.292969 98.425781 145.722656 98.257812 C 146.160156 98.09375 146.496094 97.851562 146.738281 97.539062 C 146.988281 97.21875 147.113281 96.832031 147.113281 96.382812 C 147.113281 95.957031 147.011719 95.597656 146.816406 95.304688 C 146.628906 95.015625 146.304688 94.753906 145.847656 94.523438 C 145.398438 94.296875 144.769531 94.054688 143.957031 93.804688 C 142.617188 93.398438 141.53125 92.945312 140.710938 92.445312 C 139.886719 91.941406 139.289062 91.363281 138.914062 90.707031 C 138.546875 90.042969 138.367188 89.269531 138.367188 88.394531 C 138.367188 87.34375 138.65625 86.441406 139.242188 85.691406 C 139.835938 84.941406 140.625 84.371094 141.617188 83.972656 C 142.605469 83.578125 143.691406 83.378906 144.878906 83.378906 C 146.222656 83.378906 147.402344 83.574219 148.421875 83.957031 C 149.453125 84.34375 150.34375 84.894531 151.09375 85.613281 L 149.15625 87.832031 C 148.570312 87.34375 147.945312 86.984375 147.269531 86.753906 C 146.589844 86.515625 145.902344 86.394531 145.207031 86.394531 C 144.695312 86.394531 144.242188 86.457031 143.847656 86.582031 C 143.449219 86.707031 143.148438 86.894531 142.929688 87.144531 C 142.71875 87.394531 142.617188 87.707031 142.617188 88.082031 C 142.617188 88.457031 142.71875 88.769531 142.929688 89.019531 C 143.136719 89.261719 143.492188 89.496094 144.003906 89.722656 C 144.523438 89.941406 145.242188 90.199219 146.160156 90.488281 C 147.253906 90.824219 148.183594 91.222656 148.953125 91.691406 C 149.734375 92.152344 150.328125 92.734375 150.734375 93.429688 C 151.148438 94.128906 151.359375 95.007812 151.359375 96.070312 Z M 151.359375 96.070312 " fill-opacity="1" fill-rule="nonzero"/><path fill="#ffffff" d="M 165.835938 100.351562 C 165.324219 100.6875 164.699219 100.96875 163.960938 101.195312 C 163.230469 101.433594 162.40625 101.554688 161.496094 101.554688 C 159.765625 101.554688 158.480469 101.113281 157.636719 100.226562 C 156.796875 99.34375 156.375 98.140625 156.375 96.617188 L 156.375 90.582031 L 153.59375 90.582031 L 153.59375 87.863281 L 156.375 87.863281 L 156.375 84.988281 L 160.324219 84.519531 L 160.324219 87.863281 L 164.585938 87.863281 L 164.210938 90.582031 L 160.324219 90.582031 L 160.324219 96.617188 C 160.324219 97.273438 160.46875 97.742188 160.761719 98.023438 C 161.0625 98.304688 161.546875 98.445312 162.214844 98.445312 C 162.667969 98.445312 163.089844 98.394531 163.476562 98.289062 C 163.871094 98.175781 164.21875 98.03125 164.523438 97.851562 Z M 165.835938 100.351562 " fill-opacity="1" fill-rule="nonzero"/><path fill="#ffffff" d="M 174.628906 87.425781 C 175.988281 87.425781 177.148438 87.71875 178.109375 88.300781 C 179.066406 88.886719 179.796875 89.703125 180.292969 90.753906 C 180.800781 91.808594 181.058594 93.046875 181.058594 94.460938 C 181.058594 95.941406 180.800781 97.210938 180.292969 98.273438 C 179.785156 99.328125 179.050781 100.140625 178.09375 100.710938 C 177.132812 101.273438 175.976562 101.554688 174.628906 101.554688 C 173.273438 101.554688 172.113281 101.277344 171.144531 100.726562 C 170.183594 100.164062 169.453125 99.359375 168.945312 98.304688 C 168.433594 97.242188 168.179688 95.972656 168.179688 94.492188 C 168.179688 93.085938 168.433594 91.847656 168.945312 90.785156 C 169.453125 89.722656 170.183594 88.902344 171.144531 88.316406 C 172.113281 87.722656 173.273438 87.425781 174.628906 87.425781 Z M 174.628906 90.332031 C 173.816406 90.332031 173.214844 90.667969 172.832031 91.332031 C 172.445312 91.988281 172.253906 93.046875 172.253906 94.492188 C 172.253906 95.953125 172.445312 97.015625 172.832031 97.679688 C 173.214844 98.335938 173.816406 98.664062 174.628906 98.664062 C 175.425781 98.664062 176.019531 98.335938 176.40625 97.679688 C 176.800781 97.015625 177 95.941406 177 94.460938 C 177 93.035156 176.800781 91.988281 176.40625 91.332031 C 176.019531 90.667969 175.425781 90.332031 174.628906 90.332031 Z M 174.628906 90.332031 " fill-opacity="1" fill-rule="nonzero"/><path fill="#ffffff" d="M 191.195312 87.425781 C 192.351562 87.425781 193.277344 87.714844 193.988281 88.285156 C 194.695312 88.859375 195.210938 89.671875 195.535156 90.722656 C 195.867188 91.777344 196.035156 93.023438 196.035156 94.460938 C 196.035156 95.828125 195.832031 97.046875 195.425781 98.117188 C 195.027344 99.191406 194.449219 100.035156 193.691406 100.648438 C 192.941406 101.25 192.027344 101.554688 190.945312 101.554688 C 189.652344 101.554688 188.605469 101.09375 187.804688 100.164062 L 187.804688 106.257812 L 183.855469 106.664062 L 183.855469 87.863281 L 187.355469 87.863281 L 187.527344 89.347656 C 188.0625 88.660156 188.652344 88.171875 189.289062 87.878906 C 189.933594 87.578125 190.570312 87.425781 191.195312 87.425781 Z M 189.976562 90.332031 C 189.515625 90.332031 189.109375 90.472656 188.757812 90.753906 C 188.414062 91.027344 188.09375 91.402344 187.804688 91.878906 L 187.804688 97.476562 C 188.074219 97.882812 188.359375 98.1875 188.664062 98.382812 C 188.964844 98.570312 189.324219 98.664062 189.742188 98.664062 C 190.4375 98.664062 190.984375 98.347656 191.382812 97.710938 C 191.777344 97.066406 191.976562 96 191.976562 94.507812 C 191.976562 93.414062 191.890625 92.566406 191.726562 91.957031 C 191.570312 91.355469 191.339844 90.933594 191.039062 90.691406 C 190.746094 90.453125 190.390625 90.332031 189.976562 90.332031 Z M 189.976562 90.332031 " fill-opacity="1" fill-rule="nonzero"/><path fill="#ffffff" d="M 223.582031 85.832031 L 225.296875 88.550781 L 217.195312 93.289062 L 225.296875 97.929688 L 223.519531 100.742188 L 213.792969 94.695312 L 213.792969 91.894531 Z M 223.582031 85.832031 " fill-opacity="1" fill-rule="nonzero"/></svg>